<?xml version="1.0" encoding="iso-8859-1"?>
<!-- Uploaded to: SVG Repo, www.svgrepo.com, Generator: SVG Repo Mixer Tools -->
<svg height="800px" width="800px" version="1.1" id="Layer_1" xmlns="http://www.w3.org/2000/svg" xmlns:xlink="http://www.w3.org/1999/xlink" 
	 viewBox="0 0 512 512" xml:space="preserve">
<path style="fill:#91D4FF;" d="M256,10.199C120.248,10.199,10.199,120.248,10.199,256S120.248,501.801,256,501.801
	S501.801,391.752,501.801,256S391.752,10.199,256,10.199z M256,421.227c-91.252,0-165.227-73.975-165.227-165.227
	S164.748,90.773,256,90.773S421.227,164.748,421.227,256S347.252,421.227,256,421.227z"/>
<g>
	<path style="fill:#00537B;" d="M256,512c-68.38,0-132.667-26.628-181.02-74.98S0,324.38,0,256S26.628,123.333,74.98,74.98
		S187.62,0,256,0s132.667,26.628,181.02,74.98S512,187.62,512,256s-26.628,132.667-74.98,181.02S324.38,512,256,512z M256,20.398
		C126.089,20.398,20.398,126.089,20.398,256S126.089,491.602,256,491.602S491.602,385.911,491.602,256S385.911,20.398,256,20.398z
		 M256,431.426c-96.73,0-175.426-78.696-175.426-175.426S159.27,80.574,256,80.574S431.426,159.27,431.426,256
		S352.73,431.426,256,431.426z M256,100.972c-85.483,0-155.028,69.545-155.028,155.028S170.517,411.028,256,411.028
		S411.028,341.483,411.028,256S341.483,100.972,256,100.972z"/>
	<path style="fill:#00537B;" d="M256,477.323c-5.633,0-10.199-4.566-10.199-10.199c0-5.633,4.566-10.199,10.199-10.199
		c38.724,0,76.315-11.037,108.706-31.915c4.736-3.052,11.047-1.687,14.098,3.047c3.052,4.734,1.688,11.047-3.046,14.098
		C340.064,465.161,298.652,477.323,256,477.323z"/>
	<path style="fill:#00537B;" d="M399.811,420.771c-2.733,0-5.459-1.091-7.468-3.249c-3.838-4.122-3.607-10.577,0.515-14.415
		c2.223-2.069,4.421-4.21,6.535-6.363c3.947-4.02,10.404-4.079,14.424-0.134c4.02,3.946,4.08,10.403,0.134,14.424
		c-2.326,2.37-4.747,4.726-7.192,7.004C404.794,419.867,402.299,420.771,399.811,420.771z"/>
</g>
</svg>